<svg width="53" height="52" viewBox="0 0 53 52" fill="none" xmlns="http://www.w3.org/2000/svg">
<path fill-rule="evenodd" clip-rule="evenodd" d="M6.8934 13.4706C6.83239 13.1076 6.87609 13.0533 7.24033 13.0296C7.77914 12.9946 8.32037 12.9972 8.86076 12.9998C9.00322 13.0005 9.14563 13.0012 9.28792 13.0012C9.6502 13.0012 9.66801 13.0149 9.72238 13.381C10.8155 20.7433 16.7327 26.5336 24.1642 27.4876V37.5996C20.8024 38.3066 18.0158 40.6236 16.4679 43.6964C15.1728 46.2674 16.9867 49.2918 19.7416 49.2918H32.9202C35.6751 49.2918 37.489 46.2674 36.1938 43.6964C34.6459 40.6236 31.8594 38.3066 28.4976 37.5996V27.488C35.931 26.5356 41.8499 20.7445 42.9432 13.381C42.9975 13.0149 43.0153 13.0012 43.3776 13.0012C43.5199 13.0012 43.6623 13.0005 43.8048 12.9998C44.3452 12.9972 44.8864 12.9946 45.4253 13.0296C45.8112 13.0547 45.8168 13.2133 45.7559 13.5646C45.7018 13.8682 45.6264 14.2203 45.5271 14.6809C44.8667 17.7463 43.4439 20.3918 41.5701 22.3277C40.7377 23.1874 40.76 24.5591 41.62 25.3913C42.4797 26.2236 43.8514 26.2012 44.6836 25.3415C47.158 22.7855 48.944 19.3965 49.7632 15.5934C49.7799 15.5162 49.7968 15.439 49.8134 15.3617C49.9779 14.6068 50.1441 13.844 50.1642 13.0703C50.1891 12.1134 49.9664 11.1453 49.2391 10.261C48.4673 9.32255 47.4758 8.94952 46.5344 8.79636C45.741 8.66729 44.7846 8.66757 43.8337 8.66787H43.4131C43.0426 8.6679 43.0251 8.6549 42.9752 8.27666C42.9271 7.91088 42.8589 7.55256 42.7581 7.20696C42.4544 6.16453 41.8899 5.31214 40.976 4.47646C39.0367 2.70311 36.7913 2.70558 33.9084 2.70876H18.7572C15.8742 2.70558 13.629 2.70311 11.6896 4.47646C10.7757 5.31214 10.2112 6.16453 9.90747 7.20696C9.80679 7.55256 9.73856 7.91088 9.69037 8.27666C9.64054 8.65494 9.62303 8.6679 9.25243 8.66787H8.83198C7.8809 8.66757 6.92469 8.66729 6.13128 8.79636C5.18971 8.94952 4.19837 9.32255 3.42645 10.261C2.69913 11.1453 2.4765 12.1134 2.50135 13.0703C2.52103 13.8276 2.70506 14.6798 2.87426 15.4632C3.66745 19.1391 5.35247 22.6252 7.98198 25.3415C8.81424 26.2012 10.1859 26.2236 11.0457 25.3913C11.9055 24.5591 11.9278 23.1874 11.0955 22.3277C8.75626 19.911 7.46087 16.7464 6.8934 13.4706Z" fill="white"/>
</svg>
