<svg width="280" height="40" viewBox="0 0 280 40" fill="none" xmlns="http://www.w3.org/2000/svg">
<path fill-rule="evenodd" clip-rule="evenodd" d="M36.3239 4.26584C35.7974 3.73937 35.1936 3.50964 34.5432 3.4275C33.9933 3.35808 33.2647 3.3939 32.6005 3.42656C28.6152 3.62151 24.713 4.82375 21.7042 7.8326L19.2789 10.258C18.2202 11.3165 17.7337 11.7829 17.2841 12.0132C16.9721 12.1729 16.6102 12.2511 15.6768 12.0737C14.899 11.879 13.9246 11.6351 13.0151 11.6334C12.0133 11.6315 10.9697 11.9092 10.0858 12.793C9.24245 13.6364 8.63231 14.628 8.63232 15.7845C8.63234 16.9408 9.24248 17.9325 10.0858 18.7758L21.8139 30.5039C22.6571 31.3472 23.6488 31.9573 24.8052 31.9573C25.9618 31.9573 26.9533 31.3472 27.7966 30.5039C28.6805 29.62 28.9582 28.5763 28.9562 27.5745C28.9546 26.6651 28.7107 25.6907 28.5161 24.9129C28.3386 23.9794 28.4168 23.6176 28.5765 23.3056C28.8067 22.8559 29.2731 22.3694 30.3316 21.311L32.7571 18.8855C35.7659 15.8766 36.9682 11.9744 37.1631 7.98925C37.1958 7.32507 37.2317 6.59643 37.1621 6.04656C37.08 5.39601 36.8503 4.7923 36.3239 4.26584ZM28.626 10.3265C27.7242 10.3265 26.9933 11.0574 26.9933 11.9591C26.9933 12.8608 27.7242 13.5918 28.626 13.5918H28.6406C29.5424 13.5918 30.2733 12.8608 30.2733 11.9591C30.2733 11.0574 29.5424 10.3265 28.6406 10.3265H28.626Z" fill="#03BE5E"/>
<path fill-rule="evenodd" clip-rule="evenodd" d="M9.48417 21.798C10.0899 22.4037 10.0899 23.3858 9.48417 23.9915L6.38213 27.0935C5.77642 27.6993 4.79437 27.6993 4.18866 27.0935C3.58295 26.4878 3.58295 25.5058 4.18866 24.9001L7.2907 21.798C7.89642 21.1923 8.87846 21.1923 9.48417 21.798ZM11.9438 26.4511C12.5495 25.8454 13.5315 25.8454 14.1372 26.4511C14.7429 27.0568 14.7429 28.0389 14.1372 28.6446L6.38213 36.3997C5.77642 37.0054 4.79437 37.0054 4.18866 36.3997C3.58295 35.794 3.58295 34.8119 4.18866 34.2062L11.9438 26.4511ZM18.7904 31.1042C19.3959 31.7099 19.3959 32.6919 18.7904 33.2976L15.6883 36.3997C15.0825 37.0054 14.1005 37.0054 13.4948 36.3997C12.8891 35.794 12.8891 34.8119 13.4948 34.2062L16.5968 31.1042C17.2025 30.4984 18.1847 30.4984 18.7904 31.1042Z" fill="#03BE5E"/>
<path d="M57.3283 27.7145V25.6573H61.4883C62.494 25.6573 63.3854 25.4973 64.1626 25.1773C64.9549 24.8421 65.6254 24.385 66.174 23.8059C66.7378 23.2269 67.1645 22.5488 67.454 21.7716C67.7435 20.9945 67.8883 20.1564 67.8883 19.2573C67.8883 18.3126 67.7435 17.4592 67.454 16.6973C67.1645 15.9202 66.7378 15.2497 66.174 14.6859C65.6254 14.1069 64.9549 13.665 64.1626 13.3602C63.3854 13.0554 62.494 12.903 61.4883 12.903H57.3283V10.8459H61.2597C62.7683 10.8459 64.0787 11.0821 65.1911 11.5545C66.3035 12.0116 67.2254 12.6364 67.9568 13.4288C68.7035 14.2059 69.2597 15.0821 69.6254 16.0573C69.9911 17.0173 70.174 18.0002 70.174 19.0059V19.5088C70.174 20.484 69.9911 21.4592 69.6254 22.4345C69.2597 23.4097 68.7035 24.2935 67.9568 25.0859C67.2254 25.8783 66.3035 26.5183 65.1911 27.0059C64.0787 27.4783 62.7683 27.7145 61.2597 27.7145H57.3283ZM55.5454 27.7145V10.8459H57.7854V27.7145H55.5454ZM77.5343 27.9888C76.0867 27.9888 74.9743 27.5164 74.1972 26.5716C73.4201 25.6269 73.0315 24.263 73.0315 22.4802V15.3945H75.2258V22.9145C75.2258 23.8745 75.4848 24.6288 76.0029 25.1773C76.521 25.7107 77.222 25.9773 78.1058 25.9773C79.0201 25.9773 79.7667 25.6878 80.3458 25.1088C80.9248 24.5145 81.2143 23.7069 81.2143 22.6859V15.3945H83.4086V27.623H81.6715V22.3888H81.9458C81.9458 23.5926 81.7858 24.6135 81.4658 25.4516C81.1458 26.2745 80.6658 26.9069 80.0258 27.3488C79.401 27.7754 78.601 27.9888 77.6258 27.9888H77.5343ZM87.6584 27.623V15.4173H89.3956V20.4459H89.3042C89.3042 18.663 89.6927 17.3602 90.4699 16.5373C91.2623 15.6992 92.4432 15.2802 94.0127 15.2802H94.4242V17.2459H93.647C92.428 17.2459 91.4908 17.5735 90.8356 18.2288C90.1804 18.8688 89.8527 19.7983 89.8527 21.0173V27.623H87.6584ZM104.372 27.623V23.9659H104.006V19.7373C104.006 18.8992 103.785 18.2669 103.343 17.8402C102.916 17.4135 102.284 17.2002 101.446 17.2002C100.974 17.2002 100.486 17.2078 99.9831 17.223C99.4802 17.2383 99.0002 17.2535 98.5431 17.2688C98.0859 17.284 97.6898 17.3069 97.3545 17.3373V15.4173C97.6898 15.3869 98.0402 15.364 98.4059 15.3488C98.7869 15.3183 99.1755 15.303 99.5717 15.303C99.9679 15.2878 100.349 15.2802 100.715 15.2802C101.964 15.2802 102.985 15.4326 103.777 15.7373C104.57 16.0269 105.156 16.5069 105.537 17.1773C105.918 17.8478 106.109 18.7545 106.109 19.8973V27.623H104.372ZM100.372 27.943C99.4574 27.943 98.665 27.7907 97.9945 27.4859C97.3393 27.1659 96.8288 26.7088 96.4631 26.1145C96.1126 25.5202 95.9374 24.804 95.9374 23.9659C95.9374 23.0973 96.1279 22.3735 96.5088 21.7945C96.905 21.2154 97.4764 20.7811 98.2231 20.4916C98.9698 20.1869 99.8688 20.0345 100.92 20.0345H104.235V21.6802H100.829C99.945 21.6802 99.2669 21.8935 98.7945 22.3202C98.3221 22.7469 98.0859 23.2954 98.0859 23.9659C98.0859 24.6364 98.3221 25.1773 98.7945 25.5888C99.2669 26.0002 99.945 26.2059 100.829 26.2059C101.347 26.2059 101.842 26.1145 102.315 25.9316C102.787 25.7335 103.175 25.4135 103.48 24.9716C103.8 24.5145 103.975 23.8897 104.006 23.0973L104.6 23.9659C104.524 24.8345 104.311 25.5659 103.96 26.1602C103.625 26.7392 103.153 27.1811 102.543 27.4859C101.949 27.7907 101.225 27.943 100.372 27.943ZM114.89 27.7602C113.976 27.7602 113.184 27.6307 112.513 27.3716C111.858 27.1126 111.348 26.6707 110.982 26.0459C110.631 25.4059 110.456 24.545 110.456 23.463V11.7145H112.559V23.7373C112.559 24.3926 112.734 24.903 113.085 25.2688C113.45 25.6192 113.961 25.7945 114.616 25.7945H116.765V27.7602H114.89ZM108.353 17.063V15.4173H116.765V17.063H108.353ZM120.463 27.623V15.4173H122.657V27.623H120.463ZM118.588 17.1545V15.4173H122.657V17.1545H118.588ZM121.08 13.4516C120.592 13.4516 120.226 13.3221 119.983 13.063C119.754 12.804 119.64 12.4764 119.64 12.0802C119.64 11.684 119.754 11.3564 119.983 11.0973C120.226 10.8383 120.592 10.7088 121.08 10.7088C121.567 10.7088 121.925 10.8383 122.154 11.0973C122.398 11.3564 122.52 11.684 122.52 12.0802C122.52 12.4764 122.398 12.804 122.154 13.063C121.925 13.3221 121.567 13.4516 121.08 13.4516ZM132.522 28.0345C131.456 28.0345 130.519 27.8516 129.711 27.4859C128.903 27.1202 128.218 26.6402 127.654 26.0459C127.105 25.4364 126.686 24.7583 126.397 24.0116C126.122 23.265 125.985 22.503 125.985 21.7259V21.3145C125.985 20.5373 126.13 19.7754 126.42 19.0288C126.709 18.2669 127.136 17.5888 127.7 16.9945C128.263 16.385 128.949 15.905 129.757 15.5545C130.564 15.1888 131.486 15.0059 132.522 15.0059C133.559 15.0059 134.48 15.1888 135.288 15.5545C136.096 15.905 136.781 16.385 137.345 16.9945C137.909 17.5888 138.336 18.2669 138.625 19.0288C138.915 19.7754 139.06 20.5373 139.06 21.3145V21.7259C139.06 22.503 138.915 23.265 138.625 24.0116C138.351 24.7583 137.932 25.4364 137.368 26.0459C136.82 26.6402 136.141 27.1202 135.334 27.4859C134.526 27.8516 133.589 28.0345 132.522 28.0345ZM132.522 26.0688C133.437 26.0688 134.214 25.8707 134.854 25.4745C135.509 25.063 136.004 24.5145 136.34 23.8288C136.69 23.143 136.865 22.3735 136.865 21.5202C136.865 20.6516 136.69 19.8745 136.34 19.1888C135.989 18.503 135.486 17.9621 134.831 17.5659C134.191 17.1697 133.421 16.9716 132.522 16.9716C131.639 16.9716 130.869 17.1697 130.214 17.5659C129.559 17.9621 129.056 18.503 128.705 19.1888C128.355 19.8745 128.18 20.6516 128.18 21.5202C128.18 22.3735 128.347 23.143 128.682 23.8288C129.033 24.5145 129.528 25.063 130.168 25.4745C130.823 25.8707 131.608 26.0688 132.522 26.0688ZM142.346 27.623V15.4173H144.083V20.6516H143.809C143.809 19.4478 143.969 18.4345 144.289 17.6116C144.624 16.7735 145.127 16.1411 145.797 15.7145C146.468 15.2726 147.314 15.0516 148.335 15.0516H148.426C149.965 15.0516 151.1 15.5316 151.832 16.4916C152.578 17.4516 152.952 18.8383 152.952 20.6516V27.623H150.757V20.1945C150.757 19.2497 150.491 18.4954 149.957 17.9316C149.424 17.3526 148.693 17.063 147.763 17.063C146.803 17.063 146.026 17.3602 145.432 17.9545C144.837 18.5488 144.54 19.3411 144.54 20.3316V27.623H142.346ZM161.733 27.623V24.8345H164.385V27.623H161.733ZM161.733 19.1659V16.3773H164.385V19.1659H161.733ZM178.082 28.0345C176.832 28.0345 175.773 27.7907 174.905 27.303C174.036 26.8154 173.373 26.1678 172.916 25.3602C172.474 24.5526 172.253 23.6764 172.253 22.7316H174.402C174.402 23.7678 174.729 24.5907 175.385 25.2002C176.055 25.8097 176.954 26.1145 178.082 26.1145C178.829 26.1145 179.476 25.9773 180.025 25.703C180.573 25.4288 181 25.0402 181.305 24.5373C181.609 24.0192 181.762 23.4173 181.762 22.7316C181.762 21.6954 181.427 20.8573 180.756 20.2173C180.101 19.5773 179.217 19.2573 178.105 19.2573C177.632 19.2573 177.221 19.3183 176.87 19.4402C176.535 19.5469 176.238 19.684 175.979 19.8516L174.882 17.8859L181.259 13.223L181.03 12.8116H172.916V10.9373H183.088V13.9773L177.808 17.8173L176.208 17.8859C176.467 17.7945 176.749 17.7183 177.053 17.6573C177.373 17.5964 177.747 17.5659 178.173 17.5659C179.392 17.5659 180.429 17.7945 181.282 18.2516C182.135 18.7088 182.783 19.3183 183.225 20.0802C183.682 20.8421 183.91 21.6726 183.91 22.5716V22.8916C183.91 23.7754 183.682 24.6135 183.225 25.4059C182.783 26.183 182.128 26.8154 181.259 27.303C180.406 27.7907 179.347 28.0345 178.082 28.0345ZM192.911 27.623V10.9373H195.883L200.82 22.0688H201.186L206.1 10.9373H209.094V27.623H206.854V13.383L207.014 13.4288L202.283 24.1716H199.54L194.786 13.4288L194.969 13.383V27.623H192.911ZM219.241 28.0345C218.174 28.0345 217.237 27.8516 216.43 27.4859C215.622 27.1202 214.936 26.6402 214.373 26.0459C213.824 25.4364 213.405 24.7583 213.115 24.0116C212.841 23.265 212.704 22.503 212.704 21.7259V21.3145C212.704 20.5373 212.849 19.7754 213.138 19.0288C213.428 18.2669 213.854 17.5888 214.418 16.9945C214.982 16.385 215.668 15.905 216.475 15.5545C217.283 15.1888 218.205 15.0059 219.241 15.0059C220.277 15.0059 221.199 15.1888 222.007 15.5545C222.814 15.905 223.5 16.385 224.064 16.9945C224.628 17.5888 225.054 18.2669 225.344 19.0288C225.634 19.7754 225.778 20.5373 225.778 21.3145V21.7259C225.778 22.503 225.634 23.265 225.344 24.0116C225.07 24.7583 224.651 25.4364 224.087 26.0459C223.538 26.6402 222.86 27.1202 222.053 27.4859C221.245 27.8516 220.308 28.0345 219.241 28.0345ZM219.241 26.0688C220.155 26.0688 220.933 25.8707 221.573 25.4745C222.228 25.063 222.723 24.5145 223.058 23.8288C223.409 23.143 223.584 22.3735 223.584 21.5202C223.584 20.6516 223.409 19.8745 223.058 19.1888C222.708 18.503 222.205 17.9621 221.55 17.5659C220.91 17.1697 220.14 16.9716 219.241 16.9716C218.357 16.9716 217.588 17.1697 216.933 17.5659C216.277 17.9621 215.774 18.503 215.424 19.1888C215.074 19.8745 214.898 20.6516 214.898 21.5202C214.898 22.3735 215.066 23.143 215.401 23.8288C215.752 24.5145 216.247 25.063 216.887 25.4745C217.542 25.8707 218.327 26.0688 219.241 26.0688ZM229.065 27.623V15.4173H230.802V20.6516H230.528C230.528 19.4478 230.688 18.4345 231.008 17.6116C231.343 16.7735 231.846 16.1411 232.516 15.7145C233.187 15.2726 234.032 15.0516 235.053 15.0516H235.145C236.684 15.0516 237.819 15.5316 238.55 16.4916C239.297 17.4516 239.67 18.8383 239.67 20.6516V27.623H237.476V20.1945C237.476 19.2497 237.209 18.4954 236.676 17.9316C236.143 17.3526 235.411 17.063 234.482 17.063C233.522 17.063 232.745 17.3602 232.15 17.9545C231.556 18.5488 231.259 19.3411 231.259 20.3316V27.623H229.065ZM248.44 27.7602C247.525 27.7602 246.733 27.6307 246.062 27.3716C245.407 27.1126 244.897 26.6707 244.531 26.0459C244.18 25.4059 244.005 24.545 244.005 23.463V11.7145H246.108V23.7373C246.108 24.3926 246.283 24.903 246.634 25.2688C247 25.6192 247.51 25.7945 248.165 25.7945H250.314V27.7602H248.44ZM241.902 17.063V15.4173H250.314V17.063H241.902ZM253.417 27.623V10.9373H255.612V20.903H255.063C255.063 19.6992 255.215 18.663 255.52 17.7945C255.84 16.9107 256.328 16.2326 256.983 15.7602C257.638 15.2878 258.476 15.0516 259.497 15.0516H259.589C261.052 15.0516 262.156 15.5392 262.903 16.5145C263.65 17.4745 264.023 18.8535 264.023 20.6516V27.623H261.829V20.1945C261.829 19.204 261.547 18.4345 260.983 17.8859C260.435 17.3373 259.718 17.063 258.835 17.063C257.859 17.063 257.075 17.3907 256.48 18.0459C255.901 18.6859 255.612 19.5316 255.612 20.583V27.623H253.417ZM272.038 27.9888C270.438 27.9888 269.196 27.6459 268.312 26.9602C267.444 26.2745 266.994 25.3373 266.964 24.1488H269.021C269.051 24.6211 269.287 25.0707 269.729 25.4973C270.186 25.9088 270.956 26.1145 272.038 26.1145C273.013 26.1145 273.76 25.924 274.278 25.543C274.796 25.1469 275.055 24.6669 275.055 24.103C275.055 23.6002 274.865 23.2116 274.484 22.9373C274.103 22.6478 273.486 22.4573 272.632 22.3659L271.306 22.2288C270.148 22.1069 269.204 21.764 268.472 21.2002C267.741 20.6211 267.375 19.8135 267.375 18.7773C267.375 18.0002 267.573 17.3373 267.969 16.7888C268.366 16.225 268.914 15.7983 269.615 15.5088C270.316 15.204 271.124 15.0516 272.038 15.0516C273.409 15.0516 274.522 15.3564 275.375 15.9659C276.228 16.5754 276.67 17.4821 276.701 18.6859H274.644C274.628 18.1983 274.4 17.7869 273.958 17.4516C273.531 17.1011 272.891 16.9259 272.038 16.9259C271.185 16.9259 270.537 17.1011 270.095 17.4516C269.653 17.8021 269.432 18.244 269.432 18.7773C269.432 19.2345 269.585 19.6002 269.889 19.8745C270.209 20.1488 270.727 20.324 271.444 20.4002L272.769 20.5373C274.08 20.6745 275.131 21.0402 275.924 21.6345C276.716 22.2135 277.112 23.0364 277.112 24.103C277.112 24.865 276.891 25.543 276.449 26.1373C276.023 26.7164 275.428 27.1735 274.666 27.5088C273.905 27.8288 273.028 27.9888 272.038 27.9888Z" fill="white"/>
</svg>
