<svg width="160" height="54" viewBox="0 0 160 54" fill="none" xmlns="http://www.w3.org/2000/svg">
<path d="M1.60555 4.10563C2.49658 4.10563 3.21891 3.3833 3.21891 2.49227C3.21891 1.60123 2.49658 0.878906 1.60555 0.878906C0.714514 0.878906 -0.0078125 1.60123 -0.0078125 2.49227C-0.0078125 3.3833 0.714514 4.10563 1.60555 4.10563Z" fill="#03BE5E"/>
<path d="M1.60555 8.67545C2.49658 8.67545 3.21891 7.95313 3.21891 7.06209C3.21891 6.17106 2.49658 5.44873 1.60555 5.44873C0.714514 5.44873 -0.0078125 6.17106 -0.0078125 7.06209C-0.0078125 7.95313 0.714514 8.67545 1.60555 8.67545Z" fill="#03BE5E"/>
<path d="M1.60555 13.2453C2.49658 13.2453 3.21891 12.523 3.21891 11.6319C3.21891 10.7409 2.49658 10.0186 1.60555 10.0186C0.714514 10.0186 -0.0078125 10.7409 -0.0078125 11.6319C-0.0078125 12.523 0.714514 13.2453 1.60555 13.2453Z" fill="#03BE5E"/>
<path d="M1.60555 17.8156C2.49658 17.8156 3.21891 17.0933 3.21891 16.2022C3.21891 15.3112 2.49658 14.5889 1.60555 14.5889C0.714514 14.5889 -0.0078125 15.3112 -0.0078125 16.2022C-0.0078125 17.0933 0.714514 17.8156 1.60555 17.8156Z" fill="#03BE5E"/>
<path d="M1.60555 22.3942C2.49658 22.3942 3.21891 21.6719 3.21891 20.7808C3.21891 19.8898 2.49658 19.1675 1.60555 19.1675C0.714514 19.1675 -0.0078125 19.8898 -0.0078125 20.7808C-0.0078125 21.6719 0.714514 22.3942 1.60555 22.3942Z" fill="#03BE5E"/>
<path d="M1.60555 26.9621C2.49658 26.9621 3.21891 26.2397 3.21891 25.3487C3.21891 24.4577 2.49658 23.7354 1.60555 23.7354C0.714514 23.7354 -0.0078125 24.4577 -0.0078125 25.3487C-0.0078125 26.2397 0.714514 26.9621 1.60555 26.9621Z" fill="#03BE5E"/>
<path d="M1.60555 31.5339C2.49658 31.5339 3.21891 30.8115 3.21891 29.9205C3.21891 29.0295 2.49658 28.3071 1.60555 28.3071C0.714514 28.3071 -0.0078125 29.0295 -0.0078125 29.9205C-0.0078125 30.8115 0.714514 31.5339 1.60555 31.5339Z" fill="#03BE5E"/>
<path d="M1.60555 36.1017C2.49658 36.1017 3.21891 35.3794 3.21891 34.4884C3.21891 33.5973 2.49658 32.875 1.60555 32.875C0.714514 32.875 -0.0078125 33.5973 -0.0078125 34.4884C-0.0078125 35.3794 0.714514 36.1017 1.60555 36.1017Z" fill="#03BE5E"/>
<path d="M1.60555 40.6808C2.49658 40.6808 3.21891 39.9585 3.21891 39.0675C3.21891 38.1764 2.49658 37.4541 1.60555 37.4541C0.714514 37.4541 -0.0078125 38.1764 -0.0078125 39.0675C-0.0078125 39.9585 0.714514 40.6808 1.60555 40.6808Z" fill="#03BE5E"/>
<path d="M1.60555 45.2506C2.49658 45.2506 3.21891 44.5283 3.21891 43.6373C3.21891 42.7463 2.49658 42.0239 1.60555 42.0239C0.714514 42.0239 -0.0078125 42.7463 -0.0078125 43.6373C-0.0078125 44.5283 0.714514 45.2506 1.60555 45.2506Z" fill="#03BE5E"/>
<path d="M6.1993 8.67545C7.09033 8.67545 7.81266 7.95313 7.81266 7.06209C7.81266 6.17106 7.09033 5.44873 6.1993 5.44873C5.30826 5.44873 4.58594 6.17106 4.58594 7.06209C4.58594 7.95313 5.30826 8.67545 6.1993 8.67545Z" fill="#03BE5E"/>
<path d="M6.1993 13.2453C7.09033 13.2453 7.81266 12.523 7.81266 11.6319C7.81266 10.7409 7.09033 10.0186 6.1993 10.0186C5.30826 10.0186 4.58594 10.7409 4.58594 11.6319C4.58594 12.523 5.30826 13.2453 6.1993 13.2453Z" fill="#03BE5E"/>
<path d="M6.1993 17.8151C7.09033 17.8151 7.81266 17.0928 7.81266 16.2017C7.81266 15.3107 7.09033 14.5884 6.1993 14.5884C5.30826 14.5884 4.58594 15.3107 4.58594 16.2017C4.58594 17.0928 5.30826 17.8151 6.1993 17.8151Z" fill="#03BE5E"/>
<path d="M6.1993 22.3937C7.09033 22.3937 7.81266 21.6714 7.81266 20.7804C7.81266 19.8893 7.09033 19.167 6.1993 19.167C5.30826 19.167 4.58594 19.8893 4.58594 20.7804C4.58594 21.6714 5.30826 22.3937 6.1993 22.3937Z" fill="#03BE5E"/>
<path d="M6.1993 26.9621C7.09033 26.9621 7.81266 26.2397 7.81266 25.3487C7.81266 24.4577 7.09033 23.7354 6.1993 23.7354C5.30826 23.7354 4.58594 24.4577 4.58594 25.3487C4.58594 26.2397 5.30826 26.9621 6.1993 26.9621Z" fill="#03BE5E"/>
<path d="M6.1993 31.5339C7.09033 31.5339 7.81266 30.8115 7.81266 29.9205C7.81266 29.0295 7.09033 28.3071 6.1993 28.3071C5.30826 28.3071 4.58594 29.0295 4.58594 29.9205C4.58594 30.8115 5.30826 31.5339 6.1993 31.5339Z" fill="#03BE5E"/>
<path d="M6.1993 36.1017C7.09033 36.1017 7.81266 35.3794 7.81266 34.4884C7.81266 33.5973 7.09033 32.875 6.1993 32.875C5.30826 32.875 4.58594 33.5973 4.58594 34.4884C4.58594 35.3794 5.30826 36.1017 6.1993 36.1017Z" fill="#03BE5E"/>
<path d="M6.1993 40.6808C7.09033 40.6808 7.81266 39.9585 7.81266 39.0675C7.81266 38.1764 7.09033 37.4541 6.1993 37.4541C5.30826 37.4541 4.58594 38.1764 4.58594 39.0675C4.58594 39.9585 5.30826 40.6808 6.1993 40.6808Z" fill="#03BE5E"/>
<path d="M6.1993 45.2506C7.09033 45.2506 7.81266 44.5283 7.81266 43.6373C7.81266 42.7463 7.09033 42.0239 6.1993 42.0239C5.30826 42.0239 4.58594 42.7463 4.58594 43.6373C4.58594 44.5283 5.30826 45.2506 6.1993 45.2506Z" fill="#03BE5E"/>
<path d="M10.7989 22.3942C11.6899 22.3942 12.4123 21.6719 12.4123 20.7808C12.4123 19.8898 11.6899 19.1675 10.7989 19.1675C9.90787 19.1675 9.18555 19.8898 9.18555 20.7808C9.18555 21.6719 9.90787 22.3942 10.7989 22.3942Z" fill="#03BE5E"/>
<path d="M10.7989 26.9621C11.6899 26.9621 12.4123 26.2397 12.4123 25.3487C12.4123 24.4577 11.6899 23.7354 10.7989 23.7354C9.90787 23.7354 9.18555 24.4577 9.18555 25.3487C9.18555 26.2397 9.90787 26.9621 10.7989 26.9621Z" fill="#03BE5E"/>
<path d="M10.7989 31.5339C11.6899 31.5339 12.4123 30.8115 12.4123 29.9205C12.4123 29.0295 11.6899 28.3071 10.7989 28.3071C9.90787 28.3071 9.18555 29.0295 9.18555 29.9205C9.18555 30.8115 9.90787 31.5339 10.7989 31.5339Z" fill="#03BE5E"/>
<path d="M10.7989 36.1017C11.6899 36.1017 12.4123 35.3794 12.4123 34.4884C12.4123 33.5973 11.6899 32.875 10.7989 32.875C9.90787 32.875 9.18555 33.5973 9.18555 34.4884C9.18555 35.3794 9.90787 36.1017 10.7989 36.1017Z" fill="#03BE5E"/>
<path d="M10.7989 40.6808C11.6899 40.6808 12.4123 39.9585 12.4123 39.0675C12.4123 38.1764 11.6899 37.4541 10.7989 37.4541C9.90787 37.4541 9.18555 38.1764 9.18555 39.0675C9.18555 39.9585 9.90787 40.6808 10.7989 40.6808Z" fill="#03BE5E"/>
<path d="M10.7989 45.2506C11.6899 45.2506 12.4123 44.5283 12.4123 43.6373C12.4123 42.7463 11.6899 42.0239 10.7989 42.0239C9.90787 42.0239 9.18555 42.7463 9.18555 43.6373C9.18555 44.5283 9.90787 45.2506 10.7989 45.2506Z" fill="#03BE5E"/>
<path d="M15.3907 22.3942C16.2817 22.3942 17.0041 21.6719 17.0041 20.7808C17.0041 19.8898 16.2817 19.1675 15.3907 19.1675C14.4997 19.1675 13.7773 19.8898 13.7773 20.7808C13.7773 21.6719 14.4997 22.3942 15.3907 22.3942Z" fill="#03BE5E"/>
<path d="M15.3907 26.9621C16.2817 26.9621 17.0041 26.2397 17.0041 25.3487C17.0041 24.4577 16.2817 23.7354 15.3907 23.7354C14.4997 23.7354 13.7773 24.4577 13.7773 25.3487C13.7773 26.2397 14.4997 26.9621 15.3907 26.9621Z" fill="#03BE5E"/>
<path d="M15.3907 31.5339C16.2817 31.5339 17.0041 30.8115 17.0041 29.9205C17.0041 29.0295 16.2817 28.3071 15.3907 28.3071C14.4997 28.3071 13.7773 29.0295 13.7773 29.9205C13.7773 30.8115 14.4997 31.5339 15.3907 31.5339Z" fill="#03BE5E"/>
<path d="M15.3907 36.1017C16.2817 36.1017 17.0041 35.3794 17.0041 34.4884C17.0041 33.5973 16.2817 32.875 15.3907 32.875C14.4997 32.875 13.7773 33.5973 13.7773 34.4884C13.7773 35.3794 14.4997 36.1017 15.3907 36.1017Z" fill="#03BE5E"/>
<path d="M15.3907 40.6808C16.2817 40.6808 17.0041 39.9585 17.0041 39.0675C17.0041 38.1764 16.2817 37.4541 15.3907 37.4541C14.4997 37.4541 13.7773 38.1764 13.7773 39.0675C13.7773 39.9585 14.4997 40.6808 15.3907 40.6808Z" fill="#03BE5E"/>
<path d="M19.9845 22.3937C20.8755 22.3937 21.5978 21.6714 21.5978 20.7804C21.5978 19.8893 20.8755 19.167 19.9845 19.167C19.0934 19.167 18.3711 19.8893 18.3711 20.7804C18.3711 21.6714 19.0934 22.3937 19.9845 22.3937Z" fill="#03BE5E"/>
<path d="M19.9845 26.9621C20.8755 26.9621 21.5978 26.2397 21.5978 25.3487C21.5978 24.4577 20.8755 23.7354 19.9845 23.7354C19.0934 23.7354 18.3711 24.4577 18.3711 25.3487C18.3711 26.2397 19.0934 26.9621 19.9845 26.9621Z" fill="#03BE5E"/>
<path d="M19.9845 31.5339C20.8755 31.5339 21.5978 30.8115 21.5978 29.9205C21.5978 29.0295 20.8755 28.3071 19.9845 28.3071C19.0934 28.3071 18.3711 29.0295 18.3711 29.9205C18.3711 30.8115 19.0934 31.5339 19.9845 31.5339Z" fill="#03BE5E"/>
<path d="M19.9845 36.1017C20.8755 36.1017 21.5978 35.3794 21.5978 34.4884C21.5978 33.5973 20.8755 32.875 19.9845 32.875C19.0934 32.875 18.3711 33.5973 18.3711 34.4884C18.3711 35.3794 19.0934 36.1017 19.9845 36.1017Z" fill="#03BE5E"/>
<path d="M24.5841 22.3942C25.4751 22.3942 26.1974 21.6719 26.1974 20.7808C26.1974 19.8898 25.4751 19.1675 24.5841 19.1675C23.693 19.1675 22.9707 19.8898 22.9707 20.7808C22.9707 21.6719 23.693 22.3942 24.5841 22.3942Z" fill="#03BE5E"/>
<path d="M24.5841 26.9621C25.4751 26.9621 26.1974 26.2397 26.1974 25.3487C26.1974 24.4577 25.4751 23.7354 24.5841 23.7354C23.693 23.7354 22.9707 24.4577 22.9707 25.3487C22.9707 26.2397 23.693 26.9621 24.5841 26.9621Z" fill="#03BE5E"/>
<path d="M29.1773 26.9621C30.0684 26.9621 30.7907 26.2397 30.7907 25.3487C30.7907 24.4577 30.0684 23.7354 29.1773 23.7354C28.2863 23.7354 27.564 24.4577 27.564 25.3487C27.564 26.2397 28.2863 26.9621 29.1773 26.9621Z" fill="#03BE5E"/>
<path d="M24.5841 31.5339C25.4751 31.5339 26.1974 30.8115 26.1974 29.9205C26.1974 29.0295 25.4751 28.3071 24.5841 28.3071C23.693 28.3071 22.9707 29.0295 22.9707 29.9205C22.9707 30.8115 23.693 31.5339 24.5841 31.5339Z" fill="#03BE5E"/>
<path d="M24.5841 36.1022C25.4751 36.1022 26.1974 35.3799 26.1974 34.4889C26.1974 33.5978 25.4751 32.8755 24.5841 32.8755C23.693 32.8755 22.9707 33.5978 22.9707 34.4889C22.9707 35.3799 23.693 36.1022 24.5841 36.1022Z" fill="#03BE5E"/>
<path d="M29.1773 31.5339C30.0684 31.5339 30.7907 30.8115 30.7907 29.9205C30.7907 29.0295 30.0684 28.3071 29.1773 28.3071C28.2863 28.3071 27.564 29.0295 27.564 29.9205C27.564 30.8115 28.2863 31.5339 29.1773 31.5339Z" fill="#03BE5E"/>
<path d="M29.1773 36.1017C30.0684 36.1017 30.7907 35.3794 30.7907 34.4884C30.7907 33.5973 30.0684 32.875 29.1773 32.875C28.2863 32.875 27.564 33.5973 27.564 34.4884C27.564 35.3794 28.2863 36.1017 29.1773 36.1017Z" fill="#03BE5E"/>
<path d="M33.7696 31.5339C34.6606 31.5339 35.383 30.8115 35.383 29.9205C35.383 29.0295 34.6606 28.3071 33.7696 28.3071C32.8786 28.3071 32.1562 29.0295 32.1562 29.9205C32.1562 30.8115 32.8786 31.5339 33.7696 31.5339Z" fill="#03BE5E"/>
<path d="M33.7696 36.1022C34.6606 36.1022 35.383 35.3799 35.383 34.4889C35.383 33.5978 34.6606 32.8755 33.7696 32.8755C32.8786 32.8755 32.1562 33.5978 32.1562 34.4889C32.1562 35.3799 32.8786 36.1022 33.7696 36.1022Z" fill="#03BE5E"/>
<path d="M19.9845 40.1115C20.8755 40.1115 21.5978 39.3892 21.5978 38.4981C21.5978 37.6071 20.8755 36.8848 19.9845 36.8848C19.0934 36.8848 18.3711 37.6071 18.3711 38.4981C18.3711 39.3892 19.0934 40.1115 19.9845 40.1115Z" fill="#03BE5E"/>
<path d="M24.5841 40.112C25.4751 40.112 26.1974 39.3897 26.1974 38.4986C26.1974 37.6076 25.4751 36.8853 24.5841 36.8853C23.693 36.8853 22.9707 37.6076 22.9707 38.4986C22.9707 39.3897 23.693 40.112 24.5841 40.112Z" fill="#03BE5E"/>
<path d="M29.1773 40.112C30.0684 40.112 30.7907 39.3897 30.7907 38.4986C30.7907 37.6076 30.0684 36.8853 29.1773 36.8853C28.2863 36.8853 27.564 37.6076 27.564 38.4986C27.564 39.3897 28.2863 40.112 29.1773 40.112Z" fill="#03BE5E"/>
<path d="M33.7696 40.112C34.6606 40.112 35.383 39.3897 35.383 38.4986C35.383 37.6076 34.6606 36.8853 33.7696 36.8853C32.8786 36.8853 32.1562 37.6076 32.1562 38.4986C32.1562 39.3897 32.8786 40.112 33.7696 40.112Z" fill="#03BE5E"/>
<path d="M38.3619 31.5339C39.2529 31.5339 39.9753 30.8115 39.9753 29.9205C39.9753 29.0295 39.2529 28.3071 38.3619 28.3071C37.4709 28.3071 36.7485 29.0295 36.7485 29.9205C36.7485 30.8115 37.4709 31.5339 38.3619 31.5339Z" fill="#03BE5E"/>
<path d="M38.3619 36.1017C39.2529 36.1017 39.9753 35.3794 39.9753 34.4884C39.9753 33.5973 39.2529 32.875 38.3619 32.875C37.4709 32.875 36.7485 33.5973 36.7485 34.4884C36.7485 35.3794 37.4709 36.1017 38.3619 36.1017Z" fill="#03BE5E"/>
<path d="M38.3619 40.6808C39.2529 40.6808 39.9753 39.9585 39.9753 39.0675C39.9753 38.1764 39.2529 37.4541 38.3619 37.4541C37.4709 37.4541 36.7485 38.1764 36.7485 39.0675C36.7485 39.9585 37.4709 40.6808 38.3619 40.6808Z" fill="#03BE5E"/>
<path d="M38.3619 45.2506C39.2529 45.2506 39.9753 44.5283 39.9753 43.6373C39.9753 42.7463 39.2529 42.0239 38.3619 42.0239C37.4709 42.0239 36.7485 42.7463 36.7485 43.6373C36.7485 44.5283 37.4709 45.2506 38.3619 45.2506Z" fill="#03BE5E"/>
<path d="M42.962 31.5339C43.853 31.5339 44.5754 30.8115 44.5754 29.9205C44.5754 29.0295 43.853 28.3071 42.962 28.3071C42.071 28.3071 41.3486 29.0295 41.3486 29.9205C41.3486 30.8115 42.071 31.5339 42.962 31.5339Z" fill="#03BE5E"/>
<path d="M42.962 36.1017C43.853 36.1017 44.5754 35.3794 44.5754 34.4884C44.5754 33.5973 43.853 32.875 42.962 32.875C42.071 32.875 41.3486 33.5973 41.3486 34.4884C41.3486 35.3794 42.071 36.1017 42.962 36.1017Z" fill="#03BE5E"/>
<path d="M42.962 40.6808C43.853 40.6808 44.5754 39.9585 44.5754 39.0675C44.5754 38.1764 43.853 37.4541 42.962 37.4541C42.071 37.4541 41.3486 38.1764 41.3486 39.0675C41.3486 39.9585 42.071 40.6808 42.962 40.6808Z" fill="#03BE5E"/>
<path d="M42.962 45.2506C43.853 45.2506 44.5754 44.5283 44.5754 43.6373C44.5754 42.7463 43.853 42.0239 42.962 42.0239C42.071 42.0239 41.3486 42.7463 41.3486 43.6373C41.3486 44.5283 42.071 45.2506 42.962 45.2506Z" fill="#03BE5E"/>
<path d="M47.5548 36.1022C48.4458 36.1022 49.1681 35.3799 49.1681 34.4889C49.1681 33.5978 48.4458 32.8755 47.5548 32.8755C46.6637 32.8755 45.9414 33.5978 45.9414 34.4889C45.9414 35.3799 46.6637 36.1022 47.5548 36.1022Z" fill="#03BE5E"/>
<path d="M51.5846 36.1022C52.4756 36.1022 53.1979 35.3799 53.1979 34.4889C53.1979 33.5978 52.4756 32.8755 51.5846 32.8755C50.6935 32.8755 49.9712 33.5978 49.9712 34.4889C49.9712 35.3799 50.6935 36.1022 51.5846 36.1022Z" fill="#03BE5E"/>
<path d="M47.5548 45.2506C48.4458 45.2506 49.1681 44.5283 49.1681 43.6373C49.1681 42.7463 48.4458 42.0239 47.5548 42.0239C46.6637 42.0239 45.9414 42.7463 45.9414 43.6373C45.9414 44.5283 46.6637 45.2506 47.5548 45.2506Z" fill="#03BE5E"/>
<path d="M47.5548 49.8205C48.4458 49.8205 49.1681 49.0981 49.1681 48.2071C49.1681 47.3161 48.4458 46.5938 47.5548 46.5938C46.6637 46.5938 45.9414 47.3161 45.9414 48.2071C45.9414 49.0981 46.6637 49.8205 47.5548 49.8205Z" fill="#03BE5E"/>
<path d="M52.1539 31.5339C53.0449 31.5339 53.7673 30.8115 53.7673 29.9205C53.7673 29.0295 53.0449 28.3071 52.1539 28.3071C51.2629 28.3071 50.5405 29.0295 50.5405 29.9205C50.5405 30.8115 51.2629 31.5339 52.1539 31.5339Z" fill="#03BE5E"/>
<path d="M52.1539 45.2506C53.0449 45.2506 53.7673 44.5283 53.7673 43.6373C53.7673 42.7463 53.0449 42.0239 52.1539 42.0239C51.2629 42.0239 50.5405 42.7463 50.5405 43.6373C50.5405 44.5283 51.2629 45.2506 52.1539 45.2506Z" fill="#03BE5E"/>
<path d="M52.1539 49.8205C53.0449 49.8205 53.7673 49.0981 53.7673 48.2071C53.7673 47.3161 53.0449 46.5938 52.1539 46.5938C51.2629 46.5938 50.5405 47.3161 50.5405 48.2071C50.5405 49.0981 51.2629 49.8205 52.1539 49.8205Z" fill="#03BE5E"/>
<path d="M84.6313 12.3075C84.6313 16.2308 83.6576 19.249 81.7102 21.3623C79.7628 23.4755 76.9696 24.5298 73.3306 24.525C69.6917 24.525 66.9009 23.4708 64.9582 21.3623C63.0156 19.2538 62.0418 16.2237 62.0371 12.272C62.0371 8.32034 63.0132 5.30447 64.9653 3.22439C66.9175 1.14431 69.7177 0.101906 73.3662 0.097168C77.0146 0.097168 79.803 1.14668 81.7315 3.24571C83.6647 5.34948 84.6313 8.36298 84.6313 12.3075ZM67.3107 12.3075C67.3107 14.9562 67.813 16.951 68.8175 18.2919C69.348 18.9711 70.0366 19.5101 70.8233 19.8619C71.6099 20.2138 72.4708 20.3677 73.3306 20.3104C77.3486 20.3104 79.3553 17.6428 79.3505 12.3075C79.3458 6.97232 77.351 4.29759 73.3662 4.28338C72.5027 4.22763 71.6387 4.38292 70.8486 4.73583C70.0586 5.08874 69.3664 5.62866 68.8317 6.30897C67.8154 7.65225 67.3107 9.65652 67.3107 12.3075Z" fill="#03BE5E"/>
<path d="M98.5593 10.8786H107.977V23.1814C106.574 23.6611 105.133 24.0225 103.67 24.2617C102.3 24.4621 100.917 24.5619 99.5331 24.5602C95.951 24.5602 93.217 23.5083 91.3312 21.4046C89.4454 19.3008 88.4978 16.2802 88.4883 12.3427C88.4883 8.50951 89.5852 5.52207 91.779 3.38039C93.9728 1.23872 97.0194 0.156039 100.919 0.132348C103.342 0.128339 105.74 0.624347 107.962 1.58935L106.292 5.6192C104.619 4.76645 102.768 4.32081 100.891 4.31856C99.9091 4.2735 98.9298 4.44498 98.0221 4.82084C97.1144 5.1967 96.3005 5.76773 95.6382 6.4934C94.2672 8.1411 93.5669 10.2447 93.6766 12.3854C93.6766 14.9653 94.2026 16.9269 95.2544 18.2844C95.8038 18.9671 96.5085 19.5084 97.3097 19.8633C98.1109 20.2181 98.9853 20.3762 99.86 20.3242C100.932 20.3226 102.001 20.2131 103.051 19.9973V15.0222H98.5522L98.5593 10.8786Z" fill="#03BE5E"/>
<path d="M132.944 0.474121V15.8259C132.977 17.4421 132.569 19.0369 131.764 20.4386C130.966 21.7718 129.781 22.8304 128.366 23.4734C126.713 24.2104 124.916 24.5698 123.107 24.5253C120.051 24.5253 117.682 23.7435 116 22.1799C115.147 21.3553 114.48 20.3581 114.043 19.255C113.607 18.1518 113.411 16.9682 113.469 15.7833V0.474121H118.487V15.0228C118.487 16.8494 118.85 18.1927 119.589 19.0455C120.328 19.8984 121.543 20.332 123.242 20.332C124.941 20.332 126.085 19.8984 126.796 19.0384C127.506 18.1785 127.912 16.8281 127.912 14.9873V0.474121H132.944Z" fill="#03BE5E"/>
<path d="M159.8 24.2055H153.403L143.084 6.25237H142.934C143.143 9.42224 143.247 11.6824 143.247 13.0328V24.2055H138.748V0.474121H145.095L155.401 18.2424H155.521C155.358 15.1578 155.273 12.983 155.273 11.7037V0.474121H159.8V24.2055Z" fill="#03BE5E"/>
<path d="M67.2902 30.6582C67.6351 30.9854 67.9046 31.3838 68.0801 31.8256C68.2556 32.2674 68.3329 32.7422 68.3065 33.2168C68.3307 33.6941 68.2553 34.1712 68.0852 34.6178C67.9152 35.0644 67.6541 35.4707 67.3186 35.811C66.4764 36.5087 65.3953 36.8503 64.3051 36.7634H61.9668V29.7627H64.3833C65.4305 29.684 66.4688 30.0039 67.2902 30.6582ZM67.1125 33.2453C67.1125 31.639 66.1885 30.8288 64.3406 30.8288H63.1537V35.6475H64.4757C65.1796 35.6957 65.8762 35.4803 66.4302 35.0434C66.6631 34.8138 66.8444 34.5372 66.962 34.2321C67.0797 33.9269 67.131 33.6002 67.1125 33.2737V33.2453Z" fill="#03BE5E"/>
<path d="M70.8428 29.7632H72.0226V36.7923H70.8428V29.7632Z" fill="#03BE5E"/>
<path d="M79.8536 33.374H81.0192V35.7762C80.6535 36.1549 80.2098 36.4496 79.7189 36.6398C79.228 36.83 78.7017 36.9113 78.1763 36.8779C77.6946 36.89 77.2154 36.805 76.7673 36.6279C76.3191 36.4508 75.9112 36.1854 75.5679 35.8473C74.8868 35.1513 74.5054 34.2163 74.5054 33.2425C74.5054 32.2687 74.8868 31.3336 75.5679 30.6376C75.9088 30.2953 76.316 30.0261 76.7644 29.8465C77.2129 29.6669 77.6933 29.5806 78.1763 29.5929C79.0989 29.5622 79.9995 29.8793 80.6994 30.4813L80.0881 31.3697C79.8447 31.1548 79.5624 30.9883 79.2566 30.8793C78.943 30.7862 78.6171 30.7406 78.29 30.7442C77.9594 30.7392 77.6311 30.7994 77.3237 30.9214C77.0164 31.0433 76.7361 31.2246 76.4989 31.455C76.0397 31.9439 75.7841 32.5895 75.7841 33.2602C75.7841 33.931 76.0397 34.5766 76.4989 35.0655C76.7208 35.2926 76.9863 35.4727 77.2794 35.5948C77.5725 35.7169 77.8872 35.7786 78.2047 35.7762C78.7915 35.7951 79.3714 35.6446 79.8749 35.3427L79.8536 33.374Z" fill="#03BE5E"/>
<path d="M83.606 29.7637H84.7929V36.7928H83.606V29.7637Z" fill="#03BE5E"/>
<path d="M90.4051 30.8506V36.7923H89.2181V30.8506H87.0859V29.7632H92.5373V30.8506H90.4051Z" fill="#03BE5E"/>
<path d="M95.2754 35.1937L94.5647 36.7928H93.2925L96.3913 29.7637H97.6635L100.755 36.7928H99.4972L98.7864 35.1937H95.2754ZM98.3102 34.0991L97.0309 31.1993L95.7587 34.0991H98.3102Z" fill="#03BE5E"/>
<path d="M102.745 36.7923V29.7632H103.932V35.6694H107.145V36.7923H102.745Z" fill="#03BE5E"/>
<path d="M115.329 30.6585C115.031 30.6466 114.735 30.7206 114.477 30.8718C114.37 30.9397 114.284 31.0348 114.226 31.1473C114.169 31.2597 114.142 31.3854 114.15 31.5114C114.14 31.6398 114.165 31.7685 114.223 31.8836C114.28 31.9988 114.368 32.0961 114.477 32.1653C114.924 32.3955 115.403 32.5584 115.898 32.6486C116.491 32.756 117.05 32.9992 117.533 33.3593C117.726 33.5393 117.875 33.7608 117.97 34.007C118.065 34.2533 118.102 34.5179 118.08 34.7808C118.085 35.0676 118.023 35.3516 117.9 35.6106C117.777 35.8696 117.595 36.0964 117.369 36.2733C116.851 36.6762 116.206 36.8804 115.55 36.849C114.465 36.8564 113.417 36.4497 112.622 35.7119L113.368 34.8163C113.967 35.3842 114.753 35.7129 115.578 35.7403C115.9 35.7574 116.219 35.6701 116.488 35.4915C116.595 35.4199 116.683 35.3225 116.742 35.2082C116.802 35.094 116.832 34.9665 116.829 34.8377C116.839 34.7185 116.819 34.5987 116.771 34.4894C116.722 34.3801 116.647 34.2847 116.552 34.2122C116.215 34.0151 115.847 33.8757 115.465 33.8C115.064 33.7136 114.67 33.5996 114.285 33.4588C114.03 33.3576 113.791 33.2213 113.574 33.0537C113.367 32.8817 113.203 32.6635 113.096 32.4166C112.988 32.1697 112.94 31.901 112.956 31.6322C112.942 31.3421 113 31.0531 113.123 30.7904C113.247 30.5277 113.434 30.2994 113.666 30.1255C114.179 29.7646 114.795 29.58 115.422 29.5996C115.879 29.5992 116.332 29.6736 116.765 29.8199C117.183 29.9545 117.571 30.1667 117.909 30.4453L117.263 31.3693C117.016 31.1579 116.728 31.0005 116.417 30.9073C116.071 30.7623 115.704 30.6781 115.329 30.6585Z" fill="#03BE5E"/>
<path d="M122.124 35.1866C122.292 35.3637 122.495 35.5048 122.72 35.6012C122.945 35.6976 123.187 35.7473 123.431 35.7473C123.676 35.7473 123.918 35.6976 124.143 35.6012C124.368 35.5048 124.57 35.3637 124.739 35.1866C125.079 34.7521 125.251 34.2094 125.222 33.6585V29.7637H126.409V33.7082C126.437 34.1346 126.377 34.5622 126.233 34.9645C126.088 35.3667 125.863 35.735 125.571 36.0465C124.984 36.5696 124.225 36.8585 123.438 36.8585C122.652 36.8585 121.893 36.5696 121.306 36.0465C121.014 35.735 120.788 35.3667 120.644 34.9645C120.5 34.5622 120.44 34.1346 120.468 33.7082V29.7637H121.654V33.6585C121.622 34.2077 121.789 34.7501 122.124 35.1866Z" fill="#03BE5E"/>
<path d="M130.461 36.7923H129.274V29.7632H131.122L133.255 34.1768L135.387 29.7632H137.228V36.7923H136.026V31.3055L133.567 36.1811H132.899L130.454 31.3055L130.461 36.7923Z" fill="#03BE5E"/>
<path d="M141.357 36.7928H140.17V29.7637H142.018L144.151 34.1773L146.283 29.7637H148.124V36.7928H146.937V31.306L144.485 36.1816H143.816L141.379 31.306L141.357 36.7928Z" fill="#03BE5E"/>
<path d="M151.061 29.7637H152.247V36.7928H151.061V29.7637Z" fill="#03BE5E"/>
<path d="M157.86 30.8511V36.7928H156.673V30.8511H154.541V29.7637H159.992V30.8511H157.86Z" fill="#03BE5E"/>
<path d="M127.435 49.9224V48.0546C127.435 47.6644 127.497 47.324 127.622 47.0335C127.755 46.7429 127.962 46.4856 128.244 46.2615C128.527 46.029 128.9 45.8132 129.365 45.614L130.835 44.9789C131.208 44.8212 131.482 44.6261 131.656 44.3937C131.839 44.1612 131.93 43.8665 131.93 43.5096C131.93 43.1443 131.818 42.8455 131.594 42.613C131.37 42.3806 131.042 42.2644 130.61 42.2644C130.179 42.2644 129.851 42.3847 129.627 42.6255C129.403 42.8662 129.29 43.19 129.29 43.5967H127.311C127.311 43.0239 127.435 42.5093 127.684 42.0527C127.933 41.5878 128.303 41.2225 128.792 40.9569C129.282 40.6913 129.888 40.5584 130.61 40.5584C131.333 40.5584 131.934 40.6871 132.416 40.9445C132.906 41.2018 133.275 41.5463 133.524 41.978C133.781 42.4096 133.91 42.8953 133.91 43.4349V43.5843C133.91 44.2816 133.719 44.8585 133.337 45.3151C132.956 45.7634 132.366 46.1619 131.569 46.5105L130.112 47.1456C129.863 47.2535 129.685 47.3655 129.577 47.4818C129.477 47.598 129.427 47.7557 129.427 47.9549V48.5775L128.942 48.1666H133.923V49.9224H127.435ZM139.312 50.159C138.59 50.159 137.972 50.0427 137.457 49.8103C136.942 49.5696 136.523 49.2458 136.199 48.839C135.884 48.4323 135.647 47.9632 135.49 47.432C135.34 46.8924 135.265 46.3237 135.265 45.726V45.0163C135.265 44.1861 135.411 43.4349 135.701 42.7624C135.992 42.09 136.436 41.5546 137.034 41.1561C137.631 40.7577 138.391 40.5584 139.312 40.5584C140.234 40.5584 140.989 40.7577 141.579 41.1561C142.176 41.5546 142.62 42.09 142.911 42.7624C143.201 43.4349 143.347 44.1861 143.347 45.0163V45.726C143.347 46.3237 143.268 46.8924 143.11 47.432C142.961 47.9632 142.724 48.4323 142.4 48.839C142.085 49.2458 141.67 49.5696 141.155 49.8103C140.649 50.0427 140.035 50.159 139.312 50.159ZM139.312 48.2787C139.985 48.2787 140.483 48.0463 140.807 47.5814C141.139 47.1082 141.305 46.3777 141.305 45.3898C141.305 44.3439 141.134 43.5926 140.794 43.136C140.462 42.6711 139.968 42.4387 139.312 42.4387C138.64 42.4387 138.138 42.6711 137.806 43.136C137.474 43.5926 137.308 44.3356 137.308 45.3649C137.308 46.3611 137.469 47.0958 137.793 47.5689C138.125 48.0421 138.632 48.2787 139.312 48.2787ZM144.8 49.9224V48.0546C144.8 47.6644 144.862 47.324 144.987 47.0335C145.119 46.7429 145.327 46.4856 145.609 46.2615C145.891 46.029 146.265 45.8132 146.73 45.614L148.199 44.9789C148.573 44.8212 148.847 44.6261 149.021 44.3937C149.204 44.1612 149.295 43.8665 149.295 43.5096C149.295 43.1443 149.183 42.8455 148.959 42.613C148.735 42.3806 148.407 42.2644 147.975 42.2644C147.543 42.2644 147.216 42.3847 146.991 42.6255C146.767 42.8662 146.655 43.19 146.655 43.5967H144.675C144.675 43.0239 144.8 42.5093 145.049 42.0527C145.298 41.5878 145.667 41.2225 146.157 40.9569C146.647 40.6913 147.253 40.5584 147.975 40.5584C148.697 40.5584 149.299 40.6871 149.781 40.9445C150.27 41.2018 150.64 41.5463 150.889 41.978C151.146 42.4096 151.275 42.8953 151.275 43.4349V43.5843C151.275 44.2816 151.084 44.8585 150.702 45.3151C150.32 45.7634 149.731 46.1619 148.934 46.5105L147.477 47.1456C147.228 47.2535 147.05 47.3655 146.942 47.4818C146.842 47.598 146.792 47.7557 146.792 47.9549V48.5775L146.307 48.1666H151.287V49.9224H144.8ZM155.78 50.159C155.075 50.159 154.461 50.0303 153.938 49.7729C153.423 49.5073 153.029 49.1503 152.755 48.7021C152.481 48.2538 152.344 47.7474 152.344 47.1829H154.311C154.311 47.5648 154.44 47.8761 154.697 48.1168C154.955 48.3493 155.316 48.4655 155.78 48.4655C156.088 48.4655 156.349 48.4074 156.565 48.2911C156.781 48.1749 156.947 48.0172 157.063 47.818C157.179 47.6104 157.237 47.378 157.237 47.1207C157.237 46.7222 157.109 46.3943 156.851 46.1369C156.602 45.8796 156.245 45.7509 155.78 45.7509C155.531 45.7509 155.311 45.7883 155.121 45.863C154.938 45.9377 154.78 46.029 154.647 46.1369L153.726 44.5804L156.478 42.7874L156.366 42.5757H152.717V40.8324H158.844V42.7251L155.668 44.7423L154.672 44.4684C154.838 44.4186 155.013 44.3812 155.195 44.3563C155.386 44.3231 155.59 44.3065 155.805 44.3065C156.511 44.3065 157.117 44.4227 157.623 44.6552C158.13 44.8876 158.52 45.2155 158.794 45.6389C159.076 46.0539 159.217 46.5396 159.217 47.0958V47.2452C159.217 47.8014 159.076 48.2994 158.794 48.7394C158.52 49.1794 158.126 49.528 157.611 49.7854C157.105 50.0344 156.494 50.159 155.78 50.159Z" fill="#03BE5E"/>
</svg>
