<svg width="53" height="52" viewBox="0 0 53 52" fill="none" xmlns="http://www.w3.org/2000/svg">
<path d="M5.12915 37.4152C4.51202 38.7488 4.04155 40.0159 3.74463 41.1883C3.17725 43.4282 3.07062 46.0644 4.84092 47.8315C6.40556 49.3934 8.6551 49.4779 10.6215 49.1113C12.6685 48.7296 15.0175 47.7609 17.4882 46.4013C22.4551 43.6678 28.3556 39.1074 34.0697 33.3926C39.7837 27.6778 44.3423 21.7775 47.0732 16.8117C48.4317 14.3417 49.3991 11.9932 49.7794 9.9468C50.1447 7.98071 50.0578 5.73138 48.4924 4.1688C46.714 2.39344 44.06 2.51187 41.8069 3.09037C40.6508 3.38716 39.403 3.8518 38.09 4.45888C39.6134 5.26808 41.0405 6.23413 42.3501 7.33549C42.5247 7.28256 42.6948 7.23485 42.8601 7.19243C44.8205 6.68903 45.4153 7.08117 45.5004 7.1661C45.5658 7.23145 45.8947 7.67089 45.6155 9.17317C45.3513 10.5951 44.6142 12.4946 43.3623 14.7709C40.8728 19.2976 36.5885 24.8835 31.0747 30.3981C25.561 35.9127 19.9746 40.199 15.4463 42.6909C13.1693 43.9438 11.2686 44.6825 9.84507 44.9481C8.34089 45.2285 7.8991 44.9002 7.83296 44.8341C7.74971 44.7511 7.35908 44.1666 7.85007 42.2281C7.89538 42.0493 7.94686 41.8649 8.00458 41.6751C6.90365 40.3656 5.93799 38.9384 5.12915 37.4152Z" fill="white"/>
<path d="M26.6665 4.875C14.9995 4.875 5.5415 14.333 5.5415 26C5.5415 32.1295 8.1521 37.6495 12.3221 41.5083C12.8063 41.2767 13.3259 41.01 13.8801 40.7049C18.2328 38.3095 23.748 34.0992 29.2615 28.5848C34.775 23.0704 38.9833 17.556 41.376 13.2051C41.6791 12.654 41.9443 12.1373 42.1749 11.6556C38.3158 7.48559 32.796 4.875 26.6665 4.875Z" fill="white"/>
<path d="M45.2861 16.0122C41.6443 22.4365 35.8372 28.956 32.7088 32.0315C27.1777 37.5635 21.5237 41.9651 16.7749 44.6706C19.7259 46.2373 23.0924 47.1248 26.6664 47.1248C38.3334 47.1248 47.7914 37.6668 47.7914 25.9998C47.7914 22.3871 46.8844 18.9861 45.2861 16.0122Z" fill="white"/>
</svg>
