<svg width="52" height="52" viewBox="0 0 52 52" fill="none" xmlns="http://www.w3.org/2000/svg">
<path d="M16.2571 28.4859C15.6351 28.8193 15.0255 29.1684 14.5775 29.4455C13.5058 30.0721 11.4873 31.252 10.0291 32.7343C9.08805 33.6908 7.85097 35.2812 7.62072 37.4686C7.54961 38.1442 7.58174 38.791 7.69809 39.4052C7.81453 40.0201 7.87277 40.3276 7.7172 40.4888C7.56163 40.65 7.30241 40.6105 6.78397 40.5317C4.5657 40.1941 3.0666 38.9849 1.83639 37.6662C0.916506 36.6804 0.441375 35.5464 0.559216 34.3337C0.669857 33.1949 1.27858 32.278 1.88739 31.6076C2.84827 30.5494 4.26457 29.6528 5.11276 29.1157C5.29398 29.0011 5.44931 28.9027 5.56867 28.8228C8.76974 26.6784 12.5875 26.0458 16.1524 26.925C16.9929 27.1321 17.4131 27.2357 17.4503 27.5312C17.4874 27.8265 17.0774 28.0462 16.2571 28.4859Z" fill="white"/>
<path d="M14.0562 11.4537C14.4673 11.5155 14.6728 11.5464 14.7783 11.7171C14.8839 11.8879 14.8103 12.1146 14.6632 12.5681C14.2869 13.7276 14.0835 14.9651 14.0835 16.25C14.0835 18.9366 14.9725 21.4155 16.4724 23.4087C16.7586 23.7889 16.9016 23.9789 16.8575 24.1746C16.8135 24.3702 16.6295 24.4664 16.2616 24.659C15.2866 25.1695 14.1771 25.4583 13.0002 25.4583C9.11115 25.4583 5.9585 22.3056 5.9585 18.4167C5.9585 14.5277 9.11115 11.375 13.0002 11.375C13.3591 11.375 13.7117 11.4018 14.0562 11.4537Z" fill="white"/>
<path d="M35.7438 28.4859C36.3659 28.8193 36.9756 29.1684 37.4234 29.4455C38.4953 30.0721 40.5137 31.252 41.9719 32.7343C42.9129 33.6908 44.1501 35.2812 44.3804 37.4686C44.4514 38.1442 44.4192 38.791 44.3028 39.4052C44.1865 40.0201 44.1282 40.3276 44.2837 40.4888C44.4393 40.65 44.6987 40.6105 45.2171 40.5317C47.4354 40.1941 48.9345 38.9849 50.1645 37.6662C51.0845 36.6804 51.5596 35.5464 51.4418 34.3337C51.331 33.1949 50.7224 32.278 50.1136 31.6076C49.1527 30.5494 47.7365 29.6528 46.8883 29.1157C46.7069 29.0011 46.5516 28.9027 46.4324 28.8228C43.2312 26.6784 39.4135 26.0458 35.8485 26.925C35.008 27.1321 34.5879 27.2357 34.5506 27.5312C34.5136 27.8265 34.9237 28.0462 35.7438 28.4859Z" fill="white"/>
<path d="M35.5287 23.4087C35.2424 23.7889 35.0994 23.9789 35.1436 24.1746C35.1876 24.3702 35.3716 24.4664 35.7395 24.659C36.7145 25.1695 37.824 25.4583 39.001 25.4583C42.8899 25.4583 46.0426 22.3056 46.0426 18.4167C46.0426 14.5277 42.8899 11.375 39.001 11.375C38.6419 11.375 38.2894 11.4018 37.9449 11.4537C37.5339 11.5155 37.3283 11.5464 37.2228 11.7171C37.1173 11.8879 37.1907 12.1146 37.338 12.5681C37.7142 13.7276 37.9176 14.9651 37.9176 16.25C37.9176 18.9366 37.0286 21.4155 35.5287 23.4087Z" fill="white"/>
<path d="M16.6648 31.359C22.3799 27.825 29.6292 27.825 35.3442 31.359C35.5128 31.4633 35.7262 31.588 35.9714 31.7315C37.0814 32.3811 38.8431 33.412 40.0456 34.6342C40.8007 35.4016 41.5539 36.4481 41.691 37.7527C41.8381 39.1482 41.2458 40.4402 40.1156 41.5582C38.2488 43.405 35.9361 44.9586 32.9041 44.9586H19.1051C16.0729 44.9586 13.7604 43.405 11.8935 41.5582C10.7635 40.4402 10.1711 39.1482 10.318 37.7527C10.4553 36.4481 11.2084 35.4016 11.9636 34.6342C13.1659 33.412 14.9278 32.3811 16.0377 31.7315C16.2829 31.588 16.4964 31.4633 16.6648 31.359Z" fill="white"/>
<path d="M16.7959 16.2498C16.7959 11.1642 20.9186 7.0415 26.0043 7.0415C31.0899 7.0415 35.2127 11.1642 35.2127 16.2498C35.2127 21.3355 31.0899 25.4582 26.0043 25.4582C20.9186 25.4582 16.7959 21.3355 16.7959 16.2498Z" fill="white"/>
</svg>
